<svg width="32" height="32" viewBox="0 0 32 32" fill="none" xmlns="http://www.w3.org/2000/svg">
<path d="M5.56488 21.6245L5.56484 21.6243C5.46748 21.1154 5.55019 20.5877 5.79913 20.1337C6.04813 19.6796 6.44804 19.3274 6.92987 19.1405L6.93038 19.1403L7.57093 18.8926L5.56488 21.6245ZM5.56488 21.6245L6.11254 24.4806L6.11255 24.4806C6.21649 25.0226 6.4717 25.5238 6.84884 25.9248C7.22604 26.3258 7.70948 26.6097 8.24236 26.742L8.24243 26.742L18.5574 29.3024C19.8122 29.6139 21.1375 29.411 22.2445 28.7387C23.3512 28.0666 24.1494 26.9803 24.4676 25.7176L24.4676 25.7175L26.3811 18.1185L26.3811 18.1185C26.4885 17.6917 26.4981 17.2459 26.4093 16.8148C26.3205 16.3837 26.1355 15.9785 25.868 15.6301C25.6005 15.2816 25.2575 14.9991 24.8649 14.8046C24.4722 14.6101 24.0405 14.5089 23.6028 14.5089C23.6028 14.5089 23.6028 14.5089 23.6027 14.5089L19.7495 14.5089C19.7493 14.5089 19.7491 14.5089 19.7489 14.5089C19.6688 14.5087 19.5897 14.4893 19.5178 14.4521C19.4458 14.4147 19.3829 14.3602 19.3347 14.2926C19.2866 14.2249 19.2546 14.1462 19.242 14.0629C19.2293 13.9795 19.2364 13.8943 19.2626 13.8145C20.1532 11.1009 20.618 9.04789 20.618 7.75083C20.618 6.52434 20.3937 5.5049 19.9726 4.77316C19.5452 4.03043 18.8902 3.55539 18.0802 3.55539C17.9479 3.55539 17.854 3.6071 17.8172 3.62968C17.7733 3.65655 17.7426 3.68461 17.7261 3.7008C17.6925 3.73364 17.6699 3.76481 17.6587 3.78082C17.6341 3.81605 17.6148 3.85169 17.6007 3.87967C17.5709 3.93886 17.5382 4.0163 17.5018 4.11494C17.4284 4.31411 17.3281 4.63294 17.1973 5.13587L17.1964 5.13961C17.129 5.40717 17.0584 5.67387 16.9845 5.93965L16.9845 5.93987C16.8471 6.4348 16.6096 7.27521 16.2691 8.45873L16.2686 8.46042C16.2191 8.63465 16.1452 8.80102 16.0502 8.9506L16.0495 8.95172L12.1726 15.0939L12.1726 15.0939M5.56488 21.6245L12.1726 15.0939M17.6813 5.26165C17.6129 5.53318 17.5412 5.80385 17.4663 6.07358C17.3283 6.57059 17.0903 7.41264 16.7496 8.59699C16.6874 8.81606 16.5941 9.02691 16.4724 9.2186L17.6813 5.26165ZM17.6813 5.26165C17.9382 4.2731 18.064 4.05539 18.0802 4.05539C19.2539 4.05539 20.118 5.40267 20.118 7.75083C20.118 8.96119 19.6772 10.9479 18.7874 13.6589L17.6813 5.26165ZM12.1726 15.0939C11.079 16.8269 9.46588 18.1579 7.57135 18.8924L12.1726 15.0939ZM15.998 5.65189L15.9981 5.65121C16.0523 5.45572 16.1034 5.25987 16.2047 4.86337C16.4541 3.90403 16.6773 3.31626 16.9585 2.96311C17.2004 2.65935 17.5089 2.50024 18.0815 2.50024C19.162 2.50024 20.0315 3.00609 20.6494 3.90495C21.2773 4.81846 21.6478 6.14838 21.6478 7.75083C21.6478 8.92068 21.3284 10.5879 20.6614 12.8114L20.4683 13.4551H21.1403H23.6041H23.6043C24.1967 13.455 24.7816 13.5919 25.3144 13.8558C25.8471 14.1196 26.3139 14.5036 26.6786 14.9787C27.0433 15.4539 27.2963 16.0076 27.4178 16.5977C27.5393 17.1878 27.526 17.7983 27.3789 18.3823L27.8637 18.5044L27.3789 18.3823L25.4654 25.9813C25.0789 27.5163 24.1099 28.8328 22.7715 29.646C21.4332 30.4591 19.833 30.7039 18.3182 30.3281L8.00329 27.7678L8.00325 27.7678C7.28133 27.5886 6.62439 27.2036 6.11058 26.6573C5.59675 26.111 5.24767 25.4263 5.10553 24.6841C5.10552 24.6841 5.10552 24.684 5.10551 24.684L4.55922 21.828L4.55918 21.8278C4.41439 21.0724 4.5373 20.2898 4.90564 19.6178C5.27389 18.9459 5.86336 18.4284 6.56923 18.1546C6.56928 18.1546 6.56933 18.1546 6.56938 18.1546L7.20885 17.9068L7.2089 17.9068C8.90012 17.2513 10.3379 16.0643 11.3117 14.5213L11.3118 14.5212L15.1852 8.38029C15.228 8.31315 15.2611 8.24033 15.2835 8.16405L15.2843 8.16128C15.6224 6.98353 15.8608 6.14404 15.998 5.65189Z" fill="#5E5E75" stroke="#5E5E75"/>
</svg>
